<mxfile host="Electron" modified="2024-02-20T16:08:44.826Z" agent="Mozilla/5.0 (Macintosh; Intel Mac OS X 10_15_7) AppleWebKit/537.36 (KHTML, like Gecko) draw.io/21.5.1 Chrome/112.0.5615.204 Electron/24.6.0 Safari/537.36" etag="ZAdQR9rFYK78_NWc_krX" version="21.5.1" type="device">
  <diagram name="Page-1" id="tP-X_VPU4pn0iL2W8QBN">
    <mxGraphModel dx="1026" dy="743" grid="0" gridSize="10" guides="1" tooltips="1" connect="1" arrows="1" fold="1" page="0" pageScale="1" pageWidth="850" pageHeight="1100" math="0" shadow="0">
      <root>
        <mxCell id="0" />
        <mxCell id="1" parent="0" />
        <mxCell id="FOEc2p3PeqWXlbngW7ch-3" value="" style="group;strokeColor=#e03036;dashed=1;fillColor=default;fontColor=#e83b79;" parent="1" vertex="1" connectable="0">
          <mxGeometry x="43" y="122" width="1381" height="922" as="geometry" />
        </mxCell>
        <mxCell id="FOEc2p3PeqWXlbngW7ch-1" value="&amp;nbsp;Aws Organization" style="fillColor=none;strokeColor=#de3371;verticalAlign=top;fontStyle=0;fontColor=#5A6C86;whiteSpace=wrap;html=1;align=left;spacingLeft=25;" parent="FOEc2p3PeqWXlbngW7ch-3" vertex="1">
          <mxGeometry width="1381" height="922" as="geometry" />
        </mxCell>
        <mxCell id="FOEc2p3PeqWXlbngW7ch-2" value="" style="sketch=0;points=[[0,0,0],[0.25,0,0],[0.5,0,0],[0.75,0,0],[1,0,0],[0,1,0],[0.25,1,0],[0.5,1,0],[0.75,1,0],[1,1,0],[0,0.25,0],[0,0.5,0],[0,0.75,0],[1,0.25,0],[1,0.5,0],[1,0.75,0]];points=[[0,0,0],[0.25,0,0],[0.5,0,0],[0.75,0,0],[1,0,0],[0,1,0],[0.25,1,0],[0.5,1,0],[0.75,1,0],[1,1,0],[0,0.25,0],[0,0.5,0],[0,0.75,0],[1,0.25,0],[1,0.5,0],[1,0.75,0]];outlineConnect=0;fontColor=#232F3E;gradientColor=#F34482;gradientDirection=north;fillColor=#BC1356;strokeColor=#ffffff;dashed=0;verticalLabelPosition=bottom;verticalAlign=top;align=center;html=1;fontSize=12;fontStyle=0;aspect=fixed;shape=mxgraph.aws4.resourceIcon;resIcon=mxgraph.aws4.organizations;" parent="FOEc2p3PeqWXlbngW7ch-3" vertex="1">
          <mxGeometry width="25" height="25" as="geometry" />
        </mxCell>
        <mxCell id="FOEc2p3PeqWXlbngW7ch-4" value="Pinpoint Management Account" style="points=[[0,0],[0.25,0],[0.5,0],[0.75,0],[1,0],[1,0.25],[1,0.5],[1,0.75],[1,1],[0.75,1],[0.5,1],[0.25,1],[0,1],[0,0.75],[0,0.5],[0,0.25]];outlineConnect=0;gradientColor=none;html=1;whiteSpace=wrap;fontSize=12;fontStyle=0;container=1;pointerEvents=0;collapsible=0;recursiveResize=0;shape=mxgraph.aws4.group;grIcon=mxgraph.aws4.group_account;strokeColor=#CD2264;fillColor=none;verticalAlign=top;align=left;spacingLeft=30;fontColor=#CD2264;dashed=0;" parent="FOEc2p3PeqWXlbngW7ch-3" vertex="1">
          <mxGeometry x="39" y="65.28" width="580.31" height="725.72" as="geometry" />
        </mxCell>
        <mxCell id="FOEc2p3PeqWXlbngW7ch-6" value="DynamoDB Table&lt;br&gt;PinpointTenantsTable" style="sketch=0;outlineConnect=0;fontColor=#232F3E;gradientColor=none;fillColor=#2E27AD;strokeColor=none;dashed=0;verticalLabelPosition=bottom;verticalAlign=top;align=center;html=1;fontSize=12;fontStyle=0;aspect=fixed;pointerEvents=1;shape=mxgraph.aws4.table;" parent="FOEc2p3PeqWXlbngW7ch-4" vertex="1">
          <mxGeometry x="463" y="179.8193333333333" width="78" height="78" as="geometry" />
        </mxCell>
        <mxCell id="FOEc2p3PeqWXlbngW7ch-7" value="Amazon API Gateway&lt;br&gt;PinpointTenantRouterApi" style="sketch=0;points=[[0,0,0],[0.25,0,0],[0.5,0,0],[0.75,0,0],[1,0,0],[0,1,0],[0.25,1,0],[0.5,1,0],[0.75,1,0],[1,1,0],[0,0.25,0],[0,0.5,0],[0,0.75,0],[1,0.25,0],[1,0.5,0],[1,0.75,0]];outlineConnect=0;fontColor=#232F3E;gradientColor=#FF4F8B;gradientDirection=north;fillColor=#BC1356;strokeColor=#ffffff;dashed=0;verticalLabelPosition=bottom;verticalAlign=top;align=center;html=1;fontSize=12;fontStyle=0;aspect=fixed;shape=mxgraph.aws4.resourceIcon;resIcon=mxgraph.aws4.api_gateway;" parent="FOEc2p3PeqWXlbngW7ch-4" vertex="1">
          <mxGeometry x="33" y="179.82066666666665" width="78" height="78" as="geometry" />
        </mxCell>
        <mxCell id="gyAzf5MVvab9amDLCdaj-17" value="Amazon EventBridge&lt;br&gt;PinpointTenantAccountBus" style="sketch=0;outlineConnect=0;fontColor=#232F3E;gradientColor=none;fillColor=#B0084D;strokeColor=none;dashed=0;verticalLabelPosition=bottom;verticalAlign=top;align=center;html=1;fontSize=12;fontStyle=0;aspect=fixed;pointerEvents=1;shape=mxgraph.aws4.eventbridge_custom_event_bus_resource;" vertex="1" parent="FOEc2p3PeqWXlbngW7ch-4">
          <mxGeometry x="373" y="404.72" width="78" height="69" as="geometry" />
        </mxCell>
        <mxCell id="gyAzf5MVvab9amDLCdaj-22" value="Amazon SQS&lt;br&gt;RegistrationQueue" style="sketch=0;outlineConnect=0;fontColor=#232F3E;gradientColor=none;fillColor=#B0084D;strokeColor=none;dashed=0;verticalLabelPosition=bottom;verticalAlign=top;align=center;html=1;fontSize=12;fontStyle=0;aspect=fixed;pointerEvents=1;shape=mxgraph.aws4.queue;" vertex="1" parent="FOEc2p3PeqWXlbngW7ch-4">
          <mxGeometry x="222" y="415.72" width="78" height="47" as="geometry" />
        </mxCell>
        <mxCell id="gyAzf5MVvab9amDLCdaj-23" style="edgeStyle=orthogonalEdgeStyle;rounded=0;orthogonalLoop=1;jettySize=auto;html=1;" edge="1" parent="FOEc2p3PeqWXlbngW7ch-4" source="gyAzf5MVvab9amDLCdaj-17" target="gyAzf5MVvab9amDLCdaj-22">
          <mxGeometry relative="1" as="geometry" />
        </mxCell>
        <mxCell id="FOEc2p3PeqWXlbngW7ch-5" value="Pinpoint Tenant Account - Tenant A" style="points=[[0,0],[0.25,0],[0.5,0],[0.75,0],[1,0],[1,0.25],[1,0.5],[1,0.75],[1,1],[0.75,1],[0.5,1],[0.25,1],[0,1],[0,0.75],[0,0.5],[0,0.25]];outlineConnect=0;gradientColor=none;html=1;whiteSpace=wrap;fontSize=12;fontStyle=0;container=1;pointerEvents=0;collapsible=0;recursiveResize=0;shape=mxgraph.aws4.group;grIcon=mxgraph.aws4.group_account;strokeColor=#CD2264;fillColor=none;verticalAlign=top;align=left;spacingLeft=30;fontColor=#CD2264;dashed=0;" parent="FOEc2p3PeqWXlbngW7ch-3" vertex="1">
          <mxGeometry x="638" y="65.28399999999999" width="651.71" height="740.28" as="geometry" />
        </mxCell>
        <mxCell id="gyAzf5MVvab9amDLCdaj-10" value="Amazon Pinpoint SMS&lt;br&gt;Default PhonePool" style="sketch=0;points=[[0,0,0],[0.25,0,0],[0.5,0,0],[0.75,0,0],[1,0,0],[0,1,0],[0.25,1,0],[0.5,1,0],[0.75,1,0],[1,1,0],[0,0.25,0],[0,0.5,0],[0,0.75,0],[1,0.25,0],[1,0.5,0],[1,0.75,0]];outlineConnect=0;fontColor=#232F3E;gradientColor=#FF5252;gradientDirection=north;fillColor=#C7131F;strokeColor=#ffffff;dashed=0;verticalLabelPosition=bottom;verticalAlign=top;align=center;html=1;fontSize=12;fontStyle=0;aspect=fixed;shape=mxgraph.aws4.resourceIcon;resIcon=mxgraph.aws4.pinpoint;" vertex="1" parent="FOEc2p3PeqWXlbngW7ch-5">
          <mxGeometry x="81" y="55.71600000000001" width="78" height="78" as="geometry" />
        </mxCell>
        <mxCell id="FOEc2p3PeqWXlbngW7ch-55" value="Amazon Data Firehose" style="sketch=0;points=[[0,0,0],[0.25,0,0],[0.5,0,0],[0.75,0,0],[1,0,0],[0,1,0],[0.25,1,0],[0.5,1,0],[0.75,1,0],[1,1,0],[0,0.25,0],[0,0.5,0],[0,0.75,0],[1,0.25,0],[1,0.5,0],[1,0.75,0]];outlineConnect=0;fontColor=#232F3E;gradientColor=#945DF2;gradientDirection=north;fillColor=#5A30B5;strokeColor=#ffffff;dashed=0;verticalLabelPosition=bottom;verticalAlign=top;align=center;html=1;fontSize=12;fontStyle=0;aspect=fixed;shape=mxgraph.aws4.resourceIcon;resIcon=mxgraph.aws4.kinesis_data_firehose;" parent="FOEc2p3PeqWXlbngW7ch-5" vertex="1">
          <mxGeometry x="81" y="567.7166666666667" width="78" height="78" as="geometry" />
        </mxCell>
        <mxCell id="gyAzf5MVvab9amDLCdaj-15" value="Amazon Pinpoint SMS&lt;br&gt;Simulator Phone Number" style="sketch=0;points=[[0,0,0],[0.25,0,0],[0.5,0,0],[0.75,0,0],[1,0,0],[0,1,0],[0.25,1,0],[0.5,1,0],[0.75,1,0],[1,1,0],[0,0.25,0],[0,0.5,0],[0,0.75,0],[1,0.25,0],[1,0.5,0],[1,0.75,0]];outlineConnect=0;fontColor=#232F3E;gradientColor=#FF5252;gradientDirection=north;fillColor=#C7131F;strokeColor=#ffffff;dashed=0;verticalLabelPosition=bottom;verticalAlign=top;align=center;html=1;fontSize=12;fontStyle=0;aspect=fixed;shape=mxgraph.aws4.resourceIcon;resIcon=mxgraph.aws4.pinpoint;" vertex="1" parent="FOEc2p3PeqWXlbngW7ch-5">
          <mxGeometry x="262" y="55.71600000000001" width="78" height="78" as="geometry" />
        </mxCell>
        <mxCell id="gyAzf5MVvab9amDLCdaj-16" style="edgeStyle=orthogonalEdgeStyle;rounded=0;orthogonalLoop=1;jettySize=auto;html=1;" edge="1" parent="FOEc2p3PeqWXlbngW7ch-5" source="gyAzf5MVvab9amDLCdaj-10" target="gyAzf5MVvab9amDLCdaj-15">
          <mxGeometry relative="1" as="geometry" />
        </mxCell>
        <mxCell id="gyAzf5MVvab9amDLCdaj-11" value="Amazon Pinpoint SMS&lt;br&gt;Default ConfigurationSet" style="sketch=0;points=[[0,0,0],[0.25,0,0],[0.5,0,0],[0.75,0,0],[1,0,0],[0,1,0],[0.25,1,0],[0.5,1,0],[0.75,1,0],[1,1,0],[0,0.25,0],[0,0.5,0],[0,0.75,0],[1,0.25,0],[1,0.5,0],[1,0.75,0]];outlineConnect=0;fontColor=#232F3E;gradientColor=#FF5252;gradientDirection=north;fillColor=#C7131F;strokeColor=#ffffff;dashed=0;verticalLabelPosition=bottom;verticalAlign=top;align=center;html=1;fontSize=12;fontStyle=0;aspect=fixed;shape=mxgraph.aws4.resourceIcon;resIcon=mxgraph.aws4.pinpoint;" vertex="1" parent="FOEc2p3PeqWXlbngW7ch-5">
          <mxGeometry x="332" y="567.716" width="78" height="78" as="geometry" />
        </mxCell>
        <mxCell id="H-vLOsLeeG1H9vv7-6kN-65" style="edgeStyle=orthogonalEdgeStyle;rounded=0;orthogonalLoop=1;jettySize=auto;html=1;" parent="FOEc2p3PeqWXlbngW7ch-5" source="gyAzf5MVvab9amDLCdaj-11" target="FOEc2p3PeqWXlbngW7ch-55" edge="1">
          <mxGeometry relative="1" as="geometry">
            <mxPoint x="245" y="526.8533333333334" as="sourcePoint" />
          </mxGeometry>
        </mxCell>
        <mxCell id="gyAzf5MVvab9amDLCdaj-27" value="AWS Lambda&lt;br&gt;TenantRegistration Function" style="sketch=0;outlineConnect=0;fontColor=#232F3E;gradientColor=none;fillColor=#D45B07;strokeColor=none;dashed=0;verticalLabelPosition=bottom;verticalAlign=top;align=center;html=1;fontSize=12;fontStyle=0;aspect=fixed;pointerEvents=1;shape=mxgraph.aws4.lambda_function;" vertex="1" parent="FOEc2p3PeqWXlbngW7ch-5">
          <mxGeometry x="106.04999999999995" y="256.716" width="47.9" height="47.9" as="geometry" />
        </mxCell>
        <mxCell id="gyAzf5MVvab9amDLCdaj-8" style="edgeStyle=orthogonalEdgeStyle;rounded=0;orthogonalLoop=1;jettySize=auto;html=1;entryX=0;entryY=0.5;entryDx=0;entryDy=0;entryPerimeter=0;" edge="1" parent="FOEc2p3PeqWXlbngW7ch-3" source="FOEc2p3PeqWXlbngW7ch-7" target="gyAzf5MVvab9amDLCdaj-2">
          <mxGeometry relative="1" as="geometry" />
        </mxCell>
        <mxCell id="H-vLOsLeeG1H9vv7-6kN-3" style="edgeStyle=orthogonalEdgeStyle;rounded=0;orthogonalLoop=1;jettySize=auto;html=1;dashed=1;exitX=0.25;exitY=0;exitDx=0;exitDy=0;exitPerimeter=0;" parent="FOEc2p3PeqWXlbngW7ch-3" source="gyAzf5MVvab9amDLCdaj-2" target="H-vLOsLeeG1H9vv7-6kN-2" edge="1">
          <mxGeometry relative="1" as="geometry">
            <Array as="points">
              <mxPoint x="307" y="-87" />
              <mxPoint x="1176" y="-87" />
            </Array>
            <mxPoint x="260" y="162" as="sourcePoint" />
          </mxGeometry>
        </mxCell>
        <mxCell id="H-vLOsLeeG1H9vv7-6kN-4" value="assumeRole()" style="edgeLabel;html=1;align=center;verticalAlign=middle;resizable=0;points=[];" parent="H-vLOsLeeG1H9vv7-6kN-3" vertex="1" connectable="0">
          <mxGeometry x="0.0695" y="1" relative="1" as="geometry">
            <mxPoint as="offset" />
          </mxGeometry>
        </mxCell>
        <mxCell id="H-vLOsLeeG1H9vv7-6kN-7" style="edgeStyle=orthogonalEdgeStyle;rounded=0;orthogonalLoop=1;jettySize=auto;html=1;exitX=0.5;exitY=0;exitDx=0;exitDy=0;exitPerimeter=0;dashed=1;" parent="FOEc2p3PeqWXlbngW7ch-3" source="gyAzf5MVvab9amDLCdaj-2" target="FOEc2p3PeqWXlbngW7ch-5" edge="1">
          <mxGeometry relative="1" as="geometry">
            <Array as="points">
              <mxPoint x="326" y="179" />
            </Array>
            <mxPoint x="281.9994540615544" y="257" as="sourcePoint" />
          </mxGeometry>
        </mxCell>
        <mxCell id="H-vLOsLeeG1H9vv7-6kN-8" value="Invoke Pinpoint Apis" style="edgeLabel;html=1;align=center;verticalAlign=middle;resizable=0;points=[];" parent="H-vLOsLeeG1H9vv7-6kN-7" vertex="1" connectable="0">
          <mxGeometry x="0.1751" relative="1" as="geometry">
            <mxPoint as="offset" />
          </mxGeometry>
        </mxCell>
        <mxCell id="H-vLOsLeeG1H9vv7-6kN-64" style="edgeStyle=orthogonalEdgeStyle;rounded=0;orthogonalLoop=1;jettySize=auto;html=1;" parent="FOEc2p3PeqWXlbngW7ch-3" source="FOEc2p3PeqWXlbngW7ch-55" target="H-vLOsLeeG1H9vv7-6kN-63" edge="1">
          <mxGeometry relative="1" as="geometry" />
        </mxCell>
        <mxCell id="H-vLOsLeeG1H9vv7-6kN-63" value="S3 Bucket&amp;nbsp;&lt;br&gt;pinpoint-event-stream-data" style="sketch=0;outlineConnect=0;fontColor=#232F3E;gradientColor=none;fillColor=#3F8624;strokeColor=none;dashed=0;verticalLabelPosition=bottom;verticalAlign=top;align=center;html=1;fontSize=12;fontStyle=0;aspect=fixed;pointerEvents=1;shape=mxgraph.aws4.bucket;" parent="FOEc2p3PeqWXlbngW7ch-3" vertex="1">
          <mxGeometry x="400" y="633" width="75" height="78" as="geometry" />
        </mxCell>
        <mxCell id="gyAzf5MVvab9amDLCdaj-6" style="edgeStyle=orthogonalEdgeStyle;rounded=0;orthogonalLoop=1;jettySize=auto;html=1;" edge="1" parent="FOEc2p3PeqWXlbngW7ch-3" source="gyAzf5MVvab9amDLCdaj-2" target="FOEc2p3PeqWXlbngW7ch-6">
          <mxGeometry relative="1" as="geometry" />
        </mxCell>
        <mxCell id="gyAzf5MVvab9amDLCdaj-7" value="GetItem()" style="edgeLabel;html=1;align=center;verticalAlign=middle;resizable=0;points=[];" vertex="1" connectable="0" parent="gyAzf5MVvab9amDLCdaj-6">
          <mxGeometry x="-0.0449" y="-3" relative="1" as="geometry">
            <mxPoint x="2" y="-18" as="offset" />
          </mxGeometry>
        </mxCell>
        <mxCell id="gyAzf5MVvab9amDLCdaj-2" value="AWS Step Functions&lt;br&gt;PinpointTenantRouterStateMachine" style="sketch=0;points=[[0,0,0],[0.25,0,0],[0.5,0,0],[0.75,0,0],[1,0,0],[0,1,0],[0.25,1,0],[0.5,1,0],[0.75,1,0],[1,1,0],[0,0.25,0],[0,0.5,0],[0,0.75,0],[1,0.25,0],[1,0.5,0],[1,0.75,0]];outlineConnect=0;fontColor=#232F3E;gradientColor=#FF4F8B;gradientDirection=north;fillColor=#BC1356;strokeColor=#ffffff;dashed=0;verticalLabelPosition=bottom;verticalAlign=top;align=center;html=1;fontSize=12;fontStyle=0;aspect=fixed;shape=mxgraph.aws4.resourceIcon;resIcon=mxgraph.aws4.step_functions;" vertex="1" parent="FOEc2p3PeqWXlbngW7ch-3">
          <mxGeometry x="287" y="245.1" width="78" height="78" as="geometry" />
        </mxCell>
        <mxCell id="H-vLOsLeeG1H9vv7-6kN-2" value="IAM Role&lt;br&gt;PinpointManagementAccountAccessRole" style="sketch=0;outlineConnect=0;fontColor=#232F3E;gradientColor=none;fillColor=#BF0816;strokeColor=none;dashed=0;verticalLabelPosition=bottom;verticalAlign=top;align=center;html=1;fontSize=12;fontStyle=0;aspect=fixed;pointerEvents=1;shape=mxgraph.aws4.role;" parent="FOEc2p3PeqWXlbngW7ch-3" vertex="1">
          <mxGeometry x="1134" y="106.52000000000001" width="78" height="44" as="geometry" />
        </mxCell>
        <mxCell id="gyAzf5MVvab9amDLCdaj-14" style="edgeStyle=orthogonalEdgeStyle;rounded=0;orthogonalLoop=1;jettySize=auto;html=1;" edge="1" parent="FOEc2p3PeqWXlbngW7ch-3" source="gyAzf5MVvab9amDLCdaj-11" target="gyAzf5MVvab9amDLCdaj-13">
          <mxGeometry relative="1" as="geometry" />
        </mxCell>
        <mxCell id="gyAzf5MVvab9amDLCdaj-13" value="Amazon CloudWatch Logs&lt;br&gt;EventDestination" style="sketch=0;points=[[0,0,0],[0.25,0,0],[0.5,0,0],[0.75,0,0],[1,0,0],[0,1,0],[0.25,1,0],[0.5,1,0],[0.75,1,0],[1,1,0],[0,0.25,0],[0,0.5,0],[0,0.75,0],[1,0.25,0],[1,0.5,0],[1,0.75,0]];points=[[0,0,0],[0.25,0,0],[0.5,0,0],[0.75,0,0],[1,0,0],[0,1,0],[0.25,1,0],[0.5,1,0],[0.75,1,0],[1,1,0],[0,0.25,0],[0,0.5,0],[0,0.75,0],[1,0.25,0],[1,0.5,0],[1,0.75,0]];outlineConnect=0;fontColor=#232F3E;gradientColor=#F34482;gradientDirection=north;fillColor=#BC1356;strokeColor=#ffffff;dashed=0;verticalLabelPosition=bottom;verticalAlign=top;align=center;html=1;fontSize=12;fontStyle=0;aspect=fixed;shape=mxgraph.aws4.resourceIcon;resIcon=mxgraph.aws4.cloudwatch_2;" vertex="1" parent="FOEc2p3PeqWXlbngW7ch-3">
          <mxGeometry x="970" y="279" width="78" height="78" as="geometry" />
        </mxCell>
        <mxCell id="gyAzf5MVvab9amDLCdaj-19" style="edgeStyle=orthogonalEdgeStyle;rounded=0;orthogonalLoop=1;jettySize=auto;html=1;" edge="1" parent="FOEc2p3PeqWXlbngW7ch-3" target="gyAzf5MVvab9amDLCdaj-17">
          <mxGeometry relative="1" as="geometry">
            <mxPoint x="729.1328622379253" y="504.5" as="sourcePoint" />
          </mxGeometry>
        </mxCell>
        <mxCell id="gyAzf5MVvab9amDLCdaj-20" value="Tenant Registration Event" style="edgeLabel;html=1;align=center;verticalAlign=middle;resizable=0;points=[];" vertex="1" connectable="0" parent="gyAzf5MVvab9amDLCdaj-19">
          <mxGeometry x="0.08" y="2" relative="1" as="geometry">
            <mxPoint x="15" y="-3" as="offset" />
          </mxGeometry>
        </mxCell>
        <mxCell id="gyAzf5MVvab9amDLCdaj-25" style="edgeStyle=orthogonalEdgeStyle;rounded=0;orthogonalLoop=1;jettySize=auto;html=1;" edge="1" parent="FOEc2p3PeqWXlbngW7ch-3" source="gyAzf5MVvab9amDLCdaj-21" target="FOEc2p3PeqWXlbngW7ch-6">
          <mxGeometry relative="1" as="geometry">
            <Array as="points">
              <mxPoint x="127" y="415" />
              <mxPoint x="541" y="415" />
            </Array>
          </mxGeometry>
        </mxCell>
        <mxCell id="gyAzf5MVvab9amDLCdaj-26" value="PutItem()" style="edgeLabel;html=1;align=center;verticalAlign=middle;resizable=0;points=[];" vertex="1" connectable="0" parent="gyAzf5MVvab9amDLCdaj-25">
          <mxGeometry x="-0.1442" y="1" relative="1" as="geometry">
            <mxPoint as="offset" />
          </mxGeometry>
        </mxCell>
        <mxCell id="gyAzf5MVvab9amDLCdaj-21" value="AWS Lambda&lt;br&gt;TenantRegistrar Function" style="sketch=0;outlineConnect=0;fontColor=#232F3E;gradientColor=none;fillColor=#D45B07;strokeColor=none;dashed=0;verticalLabelPosition=bottom;verticalAlign=top;align=center;html=1;fontSize=12;fontStyle=0;aspect=fixed;pointerEvents=1;shape=mxgraph.aws4.lambda_function;" vertex="1" parent="FOEc2p3PeqWXlbngW7ch-3">
          <mxGeometry x="103" y="480.5" width="48" height="48" as="geometry" />
        </mxCell>
        <mxCell id="gyAzf5MVvab9amDLCdaj-24" style="edgeStyle=orthogonalEdgeStyle;rounded=0;orthogonalLoop=1;jettySize=auto;html=1;" edge="1" parent="FOEc2p3PeqWXlbngW7ch-3" source="gyAzf5MVvab9amDLCdaj-22" target="gyAzf5MVvab9amDLCdaj-21">
          <mxGeometry relative="1" as="geometry" />
        </mxCell>
        <mxCell id="gyAzf5MVvab9amDLCdaj-28" style="edgeStyle=orthogonalEdgeStyle;rounded=0;orthogonalLoop=1;jettySize=auto;html=1;" edge="1" parent="FOEc2p3PeqWXlbngW7ch-3" source="gyAzf5MVvab9amDLCdaj-27">
          <mxGeometry relative="1" as="geometry">
            <mxPoint x="768" y="478" as="targetPoint" />
          </mxGeometry>
        </mxCell>
        <mxCell id="gyAzf5MVvab9amDLCdaj-29" value="putEvents()" style="edgeLabel;html=1;align=center;verticalAlign=middle;resizable=0;points=[];" vertex="1" connectable="0" parent="gyAzf5MVvab9amDLCdaj-28">
          <mxGeometry x="0.2229" y="1" relative="1" as="geometry">
            <mxPoint as="offset" />
          </mxGeometry>
        </mxCell>
        <mxCell id="gyAzf5MVvab9amDLCdaj-30" value="Amazon EventBridge&lt;br&gt;PinpointTenantAccountBus" style="sketch=0;outlineConnect=0;fontColor=#232F3E;gradientColor=none;fillColor=#B0084D;strokeColor=none;dashed=0;verticalLabelPosition=bottom;verticalAlign=top;align=center;html=1;fontSize=12;fontStyle=0;aspect=fixed;pointerEvents=1;shape=mxgraph.aws4.eventbridge_custom_event_bus_resource;" vertex="1" parent="FOEc2p3PeqWXlbngW7ch-3">
          <mxGeometry x="728" y="474" width="78" height="69" as="geometry" />
        </mxCell>
      </root>
    </mxGraphModel>
  </diagram>
</mxfile>
